<svg width="20" height="20" viewBox="0 0 20 20" fill="none" xmlns="http://www.w3.org/2000/svg">
<path d="M0.352226 8.22957L19.1803 0.0483183C19.401 -0.0476192 19.6579 0.00124799 19.8281 0.171404C19.9983 0.3416 20.0471 0.598514 19.9512 0.819256L11.77 19.6473C11.6766 19.8622 11.4649 19.9998 11.2327 19.9998C11.2217 19.9998 11.2105 19.9995 11.1995 19.9988C10.9545 19.985 10.744 19.8198 10.6723 19.5852L8.91789 13.849C8.51207 12.522 7.47754 11.4875 6.15055 11.0817L0.414375 9.3273C0.179728 9.25551 0.0146084 9.04508 0.000741959 8.80008C-0.0131264 8.55508 0.127148 8.32738 0.352226 8.22957ZM6.49324 9.96101C8.19324 10.4809 9.51855 11.8063 10.0385 13.5062L11.3282 17.7233L18.284 1.71551L2.27621 8.67125L6.49324 9.96101Z" fill="white"/>
</svg>
