<svg id="Layer_1" enable-background="new 0 0 512.094 512.094" height="512" viewBox="0 0 512.094 512.094" width="512" xmlns="http://www.w3.org/2000/svg"><g id="XMLID_403_"><g id="XMLID_178_"><path id="XMLID_1005_" d="m466.99 111.036c-3.133-4.547-9.362-5.693-13.909-2.56-4.548 3.134-5.694 9.361-2.56 13.909 10.608 15.394 19.144 31.677 25.668 48.494-21.853.598-42.816 11.611-55.394 30.105-3.105 4.566-1.921 10.787 2.646 13.893 1.722 1.171 3.678 1.732 5.614 1.732 3.2 0 6.343-1.532 8.278-4.377 10.141-14.91 27.959-22.979 45.659-21.138 23.073 80.541 1.939 169.824-60.115 231.878-55.222 55.222-131.226 77.288-203.069 66.228 10.31-19.189 11.217-42.76 1.522-62.833-2.402-4.973-8.38-7.057-13.354-4.656-4.973 2.402-7.058 8.381-4.656 13.354 7.814 16.179 5.933 35.561-4.414 49.955-40.256-9.969-78.381-30.646-109.783-62.048-85.961-85.963-91.607-222.279-16.959-314.868 11.454 18.574 31.443 31.184 53.711 32.827.25.019.499.028.747.028 5.188 0 9.574-4.007 9.962-9.265.407-5.508-3.729-10.302-9.237-10.708-17.936-1.324-33.793-12.664-41.076-28.845.945-.978 1.886-1.959 2.852-2.925 80.539-80.54 206.952-92.167 300.581-27.647 4.547 3.133 10.774 1.988 13.909-2.56 3.134-4.548 1.987-10.775-2.56-13.909-101.577-69.994-238.71-57.389-326.072 29.974-48.352 48.352-74.981 112.639-74.981 181.019s26.629 132.667 74.981 181.019 112.639 74.981 181.019 74.981 132.667-26.629 181.02-74.981c87.364-87.365 99.969-224.5 29.97-326.076z"/><path id="XMLID_1215_" d="m266 212.093c0-5.523-4.477-10-10-10-29.776 0-54 24.224-54 54 0 5.523 4.477 10 10 10s10-4.477 10-10c0-18.748 15.252-34 34-34 5.523 0 10-4.477 10-10z"/><path id="XMLID_1218_" d="m290 256.093c0 18.748-15.252 34-34 34-5.523 0-10 4.477-10 10s4.477 10 10 10c29.776 0 54-24.224 54-54 0-5.523-4.477-10-10-10s-10 4.477-10 10z"/><path id="XMLID_1422_" d="m266 368.093c0-5.523-4.477-10-10-10-56.243 0-102-45.757-102-102 0-5.523-4.477-10-10-10s-10 4.477-10 10c0 67.271 54.729 122 122 122 5.523 0 10-4.477 10-10z"/><path id="XMLID_1423_" d="m349.205 319.017c1.535.85 3.196 1.253 4.835 1.253 3.519 0 6.932-1.861 8.757-5.158 9.945-17.961 15.202-38.37 15.202-59.02 0-43.416-23.369-83.906-60.987-105.669-4.781-2.766-10.897-1.132-13.664 3.648-2.766 4.781-1.132 10.898 3.648 13.664 31.461 18.201 51.004 52.058 51.004 88.358 0 17.269-4.391 34.327-12.699 49.331-2.676 4.832-.927 10.918 3.904 13.593z"/><path id="XMLID_1424_" d="m256 134.093c-32.587 0-63.224 12.69-86.267 35.733-3.905 3.905-3.905 10.237 0 14.143 1.953 1.953 4.512 2.929 7.071 2.929s5.119-.976 7.071-2.929c19.265-19.266 44.879-29.875 72.125-29.875 5.523 0 10-4.477 10-10s-4.477-10.001-10-10.001z"/><path id="XMLID_1428_" d="m96.467 172.052c-5.021-2.304-10.956-.099-13.258 4.921-11.419 24.9-17.209 51.52-17.209 79.12 0 69.21 37.679 132.995 98.333 166.463 1.532.845 3.188 1.247 4.822 1.247 3.524 0 6.941-1.867 8.764-5.171 2.668-4.835.911-10.918-3.924-13.586-54.277-29.95-87.995-87.026-87.995-148.953 0-24.702 5.177-48.517 15.389-70.783 2.302-5.02.098-10.956-4.922-13.258z"/><path id="XMLID_1429_" d="m320.07 337.973c-2.64 0-5.21 1.07-7.07 2.93-1.87 1.86-2.93 4.43-2.93 7.07 0 2.63 1.06 5.21 2.93 7.07 1.86 1.86 4.44 2.93 7.07 2.93s5.2-1.07 7.07-2.93c1.86-1.86 2.93-4.44 2.93-7.07s-1.07-5.21-2.93-7.07-4.44-2.93-7.07-2.93z"/><path id="XMLID_1430_" d="m429.95 92.143c2.63 0 5.21-1.07 7.07-2.93s2.93-4.43 2.93-7.07c0-2.63-1.07-5.21-2.93-7.07s-4.44-2.93-7.07-2.93-5.21 1.07-7.07 2.93-2.93 4.44-2.93 7.07c0 2.64 1.07 5.21 2.93 7.07s4.44 2.93 7.07 2.93z"/><path id="XMLID_1431_" d="m268.993 445.631c.239 0 .48-.009.722-.026 47.819-3.414 92.245-24.641 125.094-59.773 33.011-35.304 51.191-81.38 51.191-129.739 0-5.523-4.477-10-10-10s-10 4.477-10 10c0 88.769-69.274 163.25-157.709 169.563-5.509.393-9.656 5.178-9.263 10.687.376 5.267 4.765 9.288 9.965 9.288z"/><path id="XMLID_1433_" d="m350.215 91.062c-28.554-16.335-61.133-24.969-94.215-24.969-34.771 0-68.789 9.481-98.374 27.418-4.723 2.864-6.23 9.013-3.367 13.736 2.864 4.723 9.013 6.228 13.736 3.367 26.458-16.042 56.89-24.521 88.004-24.521 59.587 0 113.793 30.36 145.002 81.213 1.888 3.076 5.17 4.771 8.533 4.771 1.783 0 3.589-.478 5.221-1.479 4.707-2.889 6.181-9.046 3.292-13.753-16.69-27.198-40.147-49.945-67.832-65.783z"/></g></g></svg>