<svg width="30" height="30" viewBox="0 0 30 30" fill="none" xmlns="http://www.w3.org/2000/svg">
<path d="M15.0002 16.2348C19.4833 16.2348 23.1176 12.6005 23.1176 8.11737C23.1176 3.63422 19.4833 0 15.0002 0C10.517 0 6.88281 3.63428 6.88281 8.11743C6.88832 12.5982 10.5194 16.2293 15.0002 16.2348ZM15.0002 3.7465C17.4142 3.7465 19.3711 5.7034 19.3711 8.11743C19.3711 10.5315 17.4142 12.4884 15.0002 12.4884C12.5861 12.4884 10.6292 10.5315 10.6292 8.11743C10.6292 5.7034 12.5862 3.7465 15.0002 3.7465Z" fill="white"/>
<path d="M22.9515 20.0812C23.8337 19.5002 24.3652 18.515 24.3664 17.4587C24.3787 16.582 23.884 15.777 23.0964 15.3918C22.2871 14.9876 21.3184 15.0786 20.5987 15.6266C17.263 18.0585 12.7387 18.0585 9.40294 15.6266C8.68209 15.0815 7.71509 14.9906 6.90526 15.3918C6.11797 15.7769 5.62302 16.581 5.63397 17.4574C5.63584 18.5135 6.1672 19.4984 7.04891 20.0799C8.18012 20.8322 9.41201 21.4208 10.708 21.8283C10.9278 21.8966 11.1547 21.9598 11.3886 22.0181L7.61469 25.7084C6.62468 26.669 6.60074 28.2502 7.5613 29.2403C8.52187 30.2303 10.1031 30.2542 11.0931 29.2937C11.1137 29.2736 11.134 29.2533 11.1539 29.2326L15.0003 25.2513L18.8542 29.2401C19.814 30.2309 21.3952 30.256 22.386 29.2963C23.3768 28.3366 23.402 26.7553 22.4422 25.7645C22.4221 25.7438 22.4017 25.7234 22.3809 25.7034L18.6132 22.0169C18.8471 21.9569 19.0748 21.8932 19.2963 21.8258C20.5909 21.4199 21.8216 20.8325 22.9515 20.0812Z" fill="white"/>
</svg>
