<svg width="25" height="25" viewBox="0 0 25 25" fill="none" xmlns="http://www.w3.org/2000/svg">
<path d="M22.037 20.692C21.9815 17.2944 18.5076 16.2905 15.9711 15.5576C15.6751 15.4721 15.3905 15.3898 15.1238 15.3077V13.9061C15.6424 13.581 16.0968 13.1627 16.4633 12.6748H18.0085C18.7646 12.6748 19.3798 12.0596 19.3798 11.3035V9.6435C19.4714 9.42982 19.5223 9.19467 19.5223 8.94774V8.43148C19.5223 8.1848 19.4714 7.94979 19.3798 7.73626V6.87991C19.3798 3.08634 16.2935 0 12.5 0C8.7072 0 5.62159 3.08634 5.62159 6.87996V7.7118C5.62159 7.71834 5.62232 7.72464 5.62257 7.73113C5.5295 7.94608 5.47765 8.1828 5.47765 8.43153V8.94779C5.47765 9.92372 6.27101 10.7177 7.24616 10.7177H7.64968C7.92917 12.058 8.75198 13.201 9.87615 13.9058V15.3077C9.6094 15.3898 9.32483 15.472 9.02888 15.5576C6.49235 16.2905 3.01851 17.2944 2.96294 20.692C2.96289 20.6947 2.96289 20.6973 2.96289 20.7V24.5117C2.96289 24.7814 3.18154 25 3.45117 25H4.89884C5.16847 25 5.38712 24.7814 5.38712 24.5117C5.38712 24.242 5.16847 24.0234 4.89884 24.0234H3.93941V20.704C3.95996 19.5186 4.5045 18.63 5.65299 17.9076C6.41085 17.4309 7.33737 17.0912 8.25066 16.8071L9.4304 19.1056C9.56189 19.3618 9.89856 19.4489 10.1378 19.2875L10.6638 18.9326L11.1155 20.6301L10.3417 24.0234H9.28347C9.01384 24.0234 8.79519 24.242 8.79519 24.5117C8.79519 24.7813 9.01384 25 9.28347 25H21.5488C21.8184 25 22.0371 24.7813 22.0371 24.5117V20.6999C22.0371 20.6973 22.0371 20.6947 22.037 20.692V20.692ZM15.7 16.4957C15.7322 16.505 15.7649 16.5145 15.7973 16.5239L14.9532 18.1701L13.3736 17.1049L14.712 16.2021C15.0229 16.3 15.3536 16.3956 15.7 16.4957ZM12.5003 17.6939L13.4794 18.3542L13.0062 20.1328H11.9937L11.5207 18.3547L12.5003 17.6939ZM12.5002 16.516L10.8527 15.405V14.3771C11.3683 14.5595 11.9226 14.6595 12.4999 14.6595C13.0772 14.6595 13.6316 14.5598 14.1472 14.3774V15.405L12.5002 16.516ZM16.478 6.96927C16.4713 6.96502 16.4647 6.96077 16.458 6.95652C15.4561 6.31873 14.5907 5.76789 13.2349 6.15583C13.2223 6.15945 13.2098 6.16355 13.1975 6.16814C12.91 6.2761 12.6487 6.37673 12.3958 6.47405C10.8517 7.06844 10.0087 7.39305 8.52195 7.35125V6.96023C8.52195 4.76667 10.3065 2.98209 12.4999 2.98209C14.6934 2.98209 16.4779 4.76667 16.4779 6.96023V6.96927H16.478ZM18.4032 11.3035C18.4032 11.5211 18.2261 11.6982 18.0085 11.6982H17.0354C17.1728 11.3867 17.2793 11.0586 17.3504 10.7177H17.7539C17.9831 10.7177 18.202 10.6733 18.4032 10.5935V11.3035H18.4032ZM18.5458 8.94774C18.5458 9.38519 18.1905 9.7411 17.7538 9.7411H17.4541C17.4542 9.72899 17.4546 7.63948 17.4546 7.63948H17.7539C18.1905 7.63948 18.5458 7.99476 18.5458 8.43148V8.94774H18.5458ZM7.24616 9.74115C6.80949 9.74115 6.45421 9.38524 6.45421 8.94779V8.43153C6.45421 7.99481 6.80944 7.63953 7.24616 7.63953H7.54543C7.54543 7.63953 7.54582 9.72904 7.54592 9.74115H7.24616ZM7.55456 6.66292H7.24611C7.01784 6.66292 6.79982 6.70686 6.59933 6.78596C6.64977 3.57404 9.27712 0.976566 12.5 0.976566C15.7238 0.976566 18.3519 3.57433 18.402 6.7865C18.2011 6.70706 17.9826 6.66292 17.7538 6.66292H17.4454C17.2911 4.06877 15.1321 2.00553 12.5 2.00553C9.86785 2.00553 7.70886 4.06881 7.55456 6.66292ZM8.55134 10.1799C8.55129 10.1794 8.55119 10.1789 8.55114 10.1784C8.53264 10.023 8.52199 9.86518 8.52199 9.70487V8.32777C10.1926 8.36849 11.1891 7.98509 12.7467 7.38548C12.992 7.29104 13.2455 7.19344 13.5218 7.08958C14.4441 6.83211 14.9749 7.17005 15.9335 7.78035C16.0999 7.88626 16.2824 8.00233 16.478 8.12152V9.70487C16.478 10.431 16.2815 11.1117 15.9403 11.6982H12.5C12.2304 11.6982 12.0117 11.9168 12.0117 12.1865C12.0117 12.4562 12.2304 12.6748 12.5 12.6748H15.1428C14.4395 13.3013 13.5137 13.683 12.5 13.683C10.4673 13.683 8.78694 12.1501 8.55134 10.1799V10.1799ZM10.0479 18.1701L9.20291 16.5238C9.23523 16.5145 9.26785 16.505 9.29998 16.4957C9.64636 16.3956 9.97703 16.2999 10.2881 16.2021L11.627 17.105L10.0479 18.1701ZM11.3433 24.0234L12.0078 21.1094H12.9923L13.6578 24.0234H11.3433ZM21.0605 24.0234H14.6595L13.8845 20.63L14.3363 18.932L14.8636 19.2875C15.103 19.4489 15.4396 19.3618 15.5711 19.1055L16.7495 16.8072C17.6628 17.0913 18.5892 17.4309 19.347 17.9076C20.4955 18.63 21.0401 19.5186 21.0606 20.704V24.0234H21.0605Z" fill="white"/>
<path d="M19.1322 21.5818H16.6714C16.4018 21.5818 16.1831 21.8005 16.1831 22.0701C16.1831 22.3398 16.4018 22.5584 16.6714 22.5584H19.1322C19.4018 22.5584 19.6205 22.3398 19.6205 22.0701C19.6205 21.8005 19.4019 21.5818 19.1322 21.5818Z" fill="white"/>
<path d="M7.09131 24.0234C6.82168 24.0234 6.60303 24.242 6.60303 24.5117C6.60303 24.7814 6.82168 25 7.09131 25H7.09268C7.3623 25 7.58022 24.7814 7.58022 24.5117C7.58022 24.242 7.36094 24.0234 7.09131 24.0234Z" fill="white"/>
</svg>
