<svg width="25" height="25" viewBox="0 0 25 25" fill="none" xmlns="http://www.w3.org/2000/svg">
<path d="M4.6875 6.64062C4.6875 6.40885 4.61877 6.18228 4.49 5.98957C4.36124 5.79685 4.17821 5.64665 3.96408 5.55795C3.74995 5.46926 3.51433 5.44605 3.287 5.49127C3.05968 5.53648 2.85087 5.64809 2.68698 5.81198C2.5231 5.97587 2.41148 6.18468 2.36627 6.412C2.32105 6.63932 2.34426 6.87495 2.43295 7.08908C2.52165 7.30321 2.67185 7.48624 2.86457 7.615C3.05728 7.74377 3.28385 7.8125 3.51563 7.8125C3.82632 7.81215 4.12419 7.68857 4.34388 7.46888C4.56357 7.24919 4.68715 6.95132 4.6875 6.64062ZM3.125 6.64062C3.125 6.56337 3.14791 6.48784 3.19083 6.42361C3.23376 6.35937 3.29476 6.3093 3.36614 6.27973C3.43752 6.25017 3.51606 6.24243 3.59183 6.25751C3.66761 6.27258 3.73721 6.30978 3.79184 6.36441C3.84647 6.41904 3.88367 6.48864 3.89874 6.56442C3.91382 6.64019 3.90608 6.71873 3.87652 6.79011C3.84695 6.86149 3.79688 6.9225 3.73265 6.96542C3.66841 7.00834 3.59288 7.03125 3.51563 7.03125C3.41206 7.03113 3.31277 6.98994 3.23954 6.91671C3.16631 6.84348 3.12512 6.74419 3.125 6.64062V6.64062Z" fill="black"/>
<path d="M9.375 2.73438C8.60242 2.73437 7.84719 2.96347 7.20481 3.3927C6.56243 3.82192 6.06175 4.43199 5.7661 5.14577C5.47044 5.85954 5.39309 6.64496 5.54381 7.4027C5.69453 8.16043 6.06657 8.85646 6.61287 9.40276C7.15916 9.94906 7.85519 10.3211 8.61293 10.4718C9.37067 10.6225 10.1561 10.5452 10.8699 10.2495C11.5836 9.95387 12.1937 9.4532 12.6229 8.81082C13.0522 8.16844 13.2813 7.41321 13.2813 6.64062C13.2801 5.60498 12.8681 4.6121 12.1358 3.87979C11.4035 3.14748 10.4106 2.73555 9.375 2.73438V2.73438ZM9.375 9.76562C8.75694 9.76562 8.15275 9.58235 7.63885 9.23897C7.12494 8.89559 6.7244 8.40753 6.48788 7.83651C6.25135 7.26549 6.18947 6.63716 6.31005 6.03097C6.43063 5.42478 6.72825 4.86796 7.16529 4.43092C7.60233 3.99388 8.15915 3.69625 8.76534 3.57567C9.37154 3.45509 9.99987 3.51698 10.5709 3.7535C11.1419 3.99003 11.63 4.39056 11.9733 4.90447C12.3167 5.41837 12.5 6.02256 12.5 6.64062C12.4991 7.46914 12.1695 8.26346 11.5837 8.84931C10.9978 9.43515 10.2035 9.76469 9.375 9.76562V9.76562Z" fill="black"/>
<path d="M9.375 5.46875C9.47856 5.46887 9.57785 5.51006 9.65108 5.58329C9.72432 5.65652 9.76551 5.75581 9.76562 5.85938C9.76562 5.96298 9.80678 6.06233 9.88004 6.13559C9.95329 6.20884 10.0526 6.25 10.1562 6.25C10.2599 6.25 10.3592 6.20884 10.4325 6.13559C10.5057 6.06233 10.5469 5.96298 10.5469 5.85938C10.5466 5.61713 10.4713 5.38092 10.3314 5.18314C10.1916 4.98536 9.99392 4.8357 9.76562 4.75469V4.6875C9.76562 4.5839 9.72447 4.48454 9.65121 4.41129C9.57796 4.33803 9.4786 4.29688 9.375 4.29688C9.2714 4.29688 9.17204 4.33803 9.09879 4.41129C9.02553 4.48454 8.98438 4.5839 8.98438 4.6875V4.75469C8.72386 4.84692 8.50433 5.02825 8.36455 5.26665C8.22477 5.50505 8.17374 5.78518 8.22048 6.05756C8.26721 6.32993 8.4087 6.57703 8.61996 6.7552C8.83122 6.93336 9.09864 7.03114 9.375 7.03125C9.45226 7.03125 9.52778 7.05416 9.59202 7.09708C9.65626 7.14 9.70632 7.20101 9.73589 7.27239C9.76546 7.34377 9.77319 7.42231 9.75812 7.49808C9.74305 7.57386 9.70584 7.64346 9.65121 7.69809C9.59658 7.75272 9.52698 7.78992 9.45121 7.80499C9.37543 7.82007 9.29689 7.81233 9.22551 7.78277C9.15414 7.7532 9.09313 7.70313 9.05021 7.63889C9.00728 7.57466 8.98438 7.49913 8.98438 7.42188C8.98438 7.31827 8.94322 7.21892 8.86996 7.14566C8.79671 7.0724 8.69735 7.03125 8.59375 7.03125C8.49015 7.03125 8.39079 7.0724 8.31754 7.14566C8.24428 7.21892 8.20312 7.31827 8.20312 7.42188C8.20344 7.66412 8.27869 7.90033 8.41856 8.09811C8.55844 8.29589 8.75608 8.44555 8.98438 8.52656V8.59375C8.98438 8.69735 9.02553 8.79671 9.09879 8.86996C9.17204 8.94322 9.2714 8.98438 9.375 8.98438C9.4786 8.98438 9.57796 8.94322 9.65121 8.86996C9.72447 8.79671 9.76562 8.69735 9.76562 8.59375V8.52656C10.0261 8.43433 10.2457 8.253 10.3855 8.0146C10.5252 7.7762 10.5763 7.49607 10.5295 7.22369C10.4828 6.95132 10.3413 6.70422 10.13 6.52605C9.91878 6.34789 9.65136 6.25011 9.375 6.25C9.2714 6.25 9.17204 6.20884 9.09879 6.13559C9.02553 6.06233 8.98438 5.96298 8.98438 5.85938C8.98438 5.75577 9.02553 5.65642 9.09879 5.58316C9.17204 5.50991 9.2714 5.46875 9.375 5.46875Z" fill="black"/>
<path d="M11.3281 11.3281H3.51562C3.41202 11.3281 3.31267 11.3693 3.23941 11.4425C3.16616 11.5158 3.125 11.6151 3.125 11.7188C3.125 11.8224 3.16616 11.9217 3.23941 11.995C3.31267 12.0682 3.41202 12.1094 3.51562 12.1094H11.3281C11.4317 12.1094 11.5311 12.0682 11.6043 11.995C11.6776 11.9217 11.7188 11.8224 11.7188 11.7188C11.7188 11.6151 11.6776 11.5158 11.6043 11.4425C11.5311 11.3693 11.4317 11.3281 11.3281 11.3281Z" fill="black"/>
<path d="M11.3281 12.8906H3.51562C3.41202 12.8906 3.31267 12.9318 3.23941 13.005C3.16616 13.0783 3.125 13.1776 3.125 13.2812C3.125 13.3849 3.16616 13.4842 3.23941 13.5575C3.31267 13.6307 3.41202 13.6719 3.51562 13.6719H11.3281C11.4317 13.6719 11.5311 13.6307 11.6043 13.5575C11.6776 13.4842 11.7188 13.3849 11.7188 13.2812C11.7188 13.1776 11.6776 13.0783 11.6043 13.005C11.5311 12.9318 11.4317 12.8906 11.3281 12.8906Z" fill="black"/>
<path d="M11.3281 14.4531H3.51562C3.41202 14.4531 3.31267 14.4943 3.23941 14.5675C3.16616 14.6408 3.125 14.7401 3.125 14.8438C3.125 14.9474 3.16616 15.0467 3.23941 15.12C3.31267 15.1932 3.41202 15.2344 3.51562 15.2344H11.3281C11.4317 15.2344 11.5311 15.1932 11.6043 15.12C11.6776 15.0467 11.7188 14.9474 11.7188 14.8438C11.7188 14.7401 11.6776 14.6408 11.6043 14.5675C11.5311 14.4943 11.4317 14.4531 11.3281 14.4531Z" fill="black"/>
<path d="M11.3281 16.0156H3.51562C3.41202 16.0156 3.31267 16.0568 3.23941 16.13C3.16616 16.2033 3.125 16.3026 3.125 16.4062C3.125 16.5099 3.16616 16.6092 3.23941 16.6825C3.31267 16.7557 3.41202 16.7969 3.51562 16.7969H11.3281C11.4317 16.7969 11.5311 16.7557 11.6043 16.6825C11.6776 16.6092 11.7188 16.5099 11.7188 16.4062C11.7188 16.3026 11.6776 16.2033 11.6043 16.13C11.5311 16.0568 11.4317 16.0156 11.3281 16.0156Z" fill="black"/>
<path d="M11.3281 17.5781H3.51562C3.41202 17.5781 3.31267 17.6193 3.23941 17.6925C3.16616 17.7658 3.125 17.8651 3.125 17.9688C3.125 18.0724 3.16616 18.1717 3.23941 18.245C3.31267 18.3182 3.41202 18.3594 3.51562 18.3594H11.3281C11.4317 18.3594 11.5311 18.3182 11.6043 18.245C11.6776 18.1717 11.7188 18.0724 11.7188 17.9688C11.7188 17.8651 11.6776 17.7658 11.6043 17.6925C11.5311 17.6193 11.4317 17.5781 11.3281 17.5781Z" fill="black"/>
<path d="M15.2344 17.5781H13.6719C13.5683 17.5781 13.4689 17.6193 13.3957 17.6925C13.3224 17.7658 13.2812 17.8651 13.2812 17.9688C13.2812 18.0724 13.3224 18.1717 13.3957 18.245C13.4689 18.3182 13.5683 18.3594 13.6719 18.3594H15.2344C15.338 18.3594 15.4373 18.3182 15.5106 18.245C15.5838 18.1717 15.625 18.0724 15.625 17.9688C15.625 17.8651 15.5838 17.7658 15.5106 17.6925C15.4373 17.6193 15.338 17.5781 15.2344 17.5781Z" fill="black"/>
<path d="M11.3281 19.1406H3.51562C3.41202 19.1406 3.31267 19.1818 3.23941 19.255C3.16616 19.3283 3.125 19.4276 3.125 19.5312C3.125 19.6349 3.16616 19.7342 3.23941 19.8075C3.31267 19.8807 3.41202 19.9219 3.51562 19.9219H11.3281C11.4317 19.9219 11.5311 19.8807 11.6043 19.8075C11.6776 19.7342 11.7188 19.6349 11.7188 19.5312C11.7188 19.4276 11.6776 19.3283 11.6043 19.255C11.5311 19.1818 11.4317 19.1406 11.3281 19.1406Z" fill="black"/>
<path d="M15.2344 19.1406H13.6719C13.5683 19.1406 13.4689 19.1818 13.3957 19.255C13.3224 19.3283 13.2812 19.4276 13.2812 19.5312C13.2812 19.6349 13.3224 19.7342 13.3957 19.8075C13.4689 19.8807 13.5683 19.9219 13.6719 19.9219H15.2344C15.338 19.9219 15.4373 19.8807 15.5106 19.8075C15.5838 19.7342 15.625 19.6349 15.625 19.5312C15.625 19.4276 15.5838 19.3283 15.5106 19.255C15.4373 19.1818 15.338 19.1406 15.2344 19.1406Z" fill="black"/>
<path d="M17.9697 7.81366C17.1971 7.81366 16.4419 8.04276 15.7995 8.47198C15.1572 8.90121 14.6565 9.51128 14.3608 10.2251C14.0652 10.9388 13.9878 11.7242 14.1385 12.482C14.2893 13.2397 14.6613 13.9357 15.2076 14.482C15.7539 15.0283 16.4499 15.4004 17.2077 15.5511C17.9654 15.7018 18.7508 15.6245 19.4646 15.3288C20.1784 15.0332 20.7884 14.5325 21.2176 13.8901C21.6469 13.2477 21.876 12.4925 21.876 11.7199C21.8748 10.6843 21.4629 9.69137 20.7306 8.95906C19.9983 8.22675 19.0054 7.81482 17.9697 7.81366V7.81366ZM14.8447 11.7199C14.8456 11.0274 15.0761 10.3548 15.5 9.80724C15.924 9.25971 16.5176 8.86821 17.1878 8.69403V14.7458C16.5176 14.5716 15.924 14.1801 15.5 13.6326C15.0761 13.0851 14.8456 12.4124 14.8447 11.7199V11.7199ZM17.9697 14.8449H17.969V8.59491H17.9697C18.7985 8.59491 19.5934 8.92415 20.1794 9.5102C20.7655 10.0963 21.0947 10.8911 21.0947 11.7199C21.0947 12.5487 20.7655 13.3436 20.1794 13.9296C19.5934 14.5157 18.7985 14.8449 17.9697 14.8449Z" fill="black"/>
<path d="M24.1046 22.5075L22.2985 18.7549C22.2858 18.705 22.2632 18.6581 22.2322 18.617L21.5876 17.2775C21.5653 17.2312 21.5341 17.1897 21.4957 17.1554C21.4573 17.1212 21.4125 17.0948 21.3639 17.078C21.3153 17.0611 21.2638 17.054 21.2124 17.057C21.1611 17.0601 21.1108 17.0733 21.0646 17.0958L20.7134 17.2667L20.3974 16.6183C21.5029 16.0708 22.3908 15.1656 22.9168 14.0498C23.4428 12.934 23.5761 11.673 23.2949 10.4719C23.0138 9.27076 22.3347 8.19997 21.3681 7.43352C20.4015 6.66706 19.2042 6.24996 17.9706 6.25H17.9688V1.17188C17.9688 1.06827 17.9276 0.968918 17.8543 0.895661C17.7811 0.822405 17.6817 0.78125 17.5781 0.78125H1.17188C1.06827 0.78125 0.968918 0.822405 0.895661 0.895661C0.822405 0.968918 0.78125 1.06827 0.78125 1.17188V21.9154C0.78125 21.9678 0.791812 22.0197 0.812306 22.068C0.8328 22.1163 0.862807 22.16 0.900537 22.1964L2.07241 23.3279C2.14524 23.3982 2.24252 23.4375 2.34375 23.4375C2.44498 23.4375 2.54226 23.3982 2.61509 23.3279L3.51563 22.4583L4.41616 23.3279C4.48899 23.3982 4.58627 23.4375 4.6875 23.4375C4.78873 23.4375 4.88601 23.3982 4.95884 23.3279L5.85938 22.4583L6.75991 23.3279C6.83274 23.3982 6.93002 23.4375 7.03125 23.4375C7.13248 23.4375 7.22976 23.3982 7.30259 23.3279L8.20313 22.4583L9.10366 23.3279C9.17649 23.3982 9.27377 23.4375 9.375 23.4375C9.47623 23.4375 9.57351 23.3982 9.64634 23.3279L10.5469 22.4583L11.4474 23.3279C11.5202 23.3982 11.6175 23.4375 11.7188 23.4375C11.82 23.4375 11.9173 23.3982 11.9901 23.3279L12.8906 22.4583L13.7912 23.3279C13.864 23.3982 13.9613 23.4375 14.0625 23.4375C14.1637 23.4375 14.261 23.3982 14.3338 23.3279L15.2344 22.4583L16.1349 23.3279C16.2077 23.3982 16.305 23.4375 16.4063 23.4375C16.5075 23.4375 16.6048 23.3982 16.6776 23.3279L17.8495 22.1964C17.8872 22.16 17.9172 22.1163 17.9377 22.068C17.9582 22.0197 17.9688 21.9678 17.9688 21.9154V17.1875H17.9706C18.5489 17.1879 19.1236 17.0962 19.673 16.9158L20.011 17.6092L19.6598 17.7801C19.567 17.8254 19.4959 17.9055 19.4621 18.0031C19.4282 18.1006 19.4344 18.2076 19.4792 18.3006L21.9971 23.5324C22.1332 23.8118 22.3748 24.0257 22.6686 24.127C22.9624 24.2283 23.2844 24.2087 23.5638 24.0726V24.0726C23.8429 23.9366 24.0567 23.6954 24.1581 23.4019C24.2595 23.1085 24.2403 22.7868 24.1047 22.5075H24.1046ZM17.1875 21.7496L16.4063 22.5039L15.5057 21.6344C15.4329 21.5641 15.3356 21.5248 15.2344 21.5248C15.1331 21.5248 15.0359 21.5641 14.963 21.6344L14.0625 22.5039L13.162 21.6344C13.0891 21.5641 12.9919 21.5248 12.8906 21.5248C12.7894 21.5248 12.6921 21.5641 12.6193 21.6344L11.7188 22.5039L10.8182 21.6344C10.7454 21.5641 10.6481 21.5248 10.5469 21.5248C10.4456 21.5248 10.3484 21.5641 10.2755 21.6344L9.375 22.5039L8.47446 21.6344C8.40164 21.5641 8.30436 21.5248 8.20313 21.5248C8.10189 21.5248 8.00461 21.5641 7.93179 21.6344L7.03125 22.5039L6.13071 21.6344C6.05789 21.5641 5.96061 21.5248 5.85938 21.5248C5.75814 21.5248 5.66086 21.5641 5.58804 21.6344L4.6875 22.5039L3.78696 21.6344C3.71414 21.5641 3.61686 21.5248 3.51563 21.5248C3.41439 21.5248 3.31711 21.5641 3.24429 21.6344L2.34375 22.5039L1.5625 21.7496V1.5625H17.1875V6.3063C16.9194 6.34504 16.6546 6.40379 16.3952 6.48208C16.3698 6.29424 16.2992 6.11537 16.1894 5.96082C16.0797 5.80627 15.9341 5.68064 15.7651 5.59472C15.5962 5.5088 15.4089 5.46515 15.2193 5.46751C15.0298 5.46987 14.8437 5.51817 14.6769 5.60827C14.5101 5.69837 14.3677 5.82758 14.2618 5.98481C14.156 6.14205 14.0898 6.32262 14.0691 6.51103C14.0484 6.69944 14.0736 6.89008 14.1427 7.06658C14.2118 7.24308 14.3227 7.40019 14.4659 7.52441C13.8407 8.04573 13.34 8.70019 13.0003 9.43994C12.6606 10.1797 12.4905 10.986 12.5025 11.8C12.5145 12.6139 12.7084 13.4148 13.0698 14.1442C13.4312 14.8736 13.951 15.513 14.5914 16.0156H13.6719C13.5683 16.0156 13.4689 16.0568 13.3957 16.13C13.3224 16.2033 13.2813 16.3026 13.2813 16.4062C13.2813 16.5099 13.3224 16.6092 13.3957 16.6825C13.4689 16.7557 13.5683 16.7969 13.6719 16.7969H15.2344C15.2982 16.7969 15.361 16.7813 15.4174 16.7514C15.4737 16.7215 15.5219 16.6783 15.5577 16.6255C16.0709 16.879 16.6209 17.0497 17.1875 17.1312V21.7496ZM15.1676 7.0251C15.088 7.01105 15.0148 6.97263 14.958 6.91514C14.9013 6.85765 14.8638 6.78394 14.8507 6.70421C14.8377 6.62448 14.8498 6.54266 14.8853 6.47009C14.9208 6.39752 14.9779 6.33777 15.0489 6.29912C15.1198 6.26047 15.201 6.24483 15.2813 6.25435C15.3615 6.26388 15.4368 6.29811 15.4967 6.3523C15.5566 6.40649 15.5982 6.47796 15.6157 6.55683C15.6333 6.6357 15.6258 6.71807 15.5945 6.79253L15.5965 6.79341C15.4498 6.8644 15.3068 6.94163 15.1676 7.0251ZM17.9706 16.4062C17.0435 16.4062 16.1372 16.1313 15.3663 15.6163C14.5955 15.1012 13.9947 14.3691 13.6399 13.5126C13.2851 12.656 13.1923 11.7136 13.3731 10.8043C13.554 9.89498 14.0004 9.05975 14.656 8.40419C15.3116 7.74863 16.1468 7.30219 17.0561 7.12132C17.9654 6.94045 18.9079 7.03328 19.7644 7.38807C20.6209 7.74285 21.353 8.34366 21.8681 9.11451C22.3831 9.88537 22.6581 10.7917 22.6581 11.7188C22.6566 12.9615 22.1623 14.153 21.2836 15.0318C20.4048 15.9105 19.2133 16.4048 17.9706 16.4062V16.4062ZM20.3516 18.3124L20.7041 18.1406H20.7044H20.7048L21.0539 17.9705L21.3927 18.6745L20.6904 19.0167L20.3516 18.3124ZM23.4197 23.1464C23.3946 23.2193 23.3484 23.2831 23.2871 23.3298C23.2258 23.3765 23.152 23.4041 23.075 23.4089C22.9981 23.4138 22.9214 23.3958 22.8547 23.3572C22.788 23.3185 22.7342 23.261 22.7001 23.1919L21.0292 19.7202L21.7315 19.378L23.4014 22.8479C23.424 22.894 23.4373 22.9441 23.4404 22.9954C23.4436 23.0466 23.4365 23.098 23.4196 23.1464L23.4197 23.1464Z" fill="black"/>
</svg>
