<svg width="512" height="512" viewBox="0 0 512 512" fill="none" xmlns="http://www.w3.org/2000/svg">
<path d="M394.163 119.466C389.628 88.096 374.56 59.249 351.126 37.424C325.213 13.291 291.431 0 256.002 0C220.573 0 186.791 13.291 160.877 37.424C137.443 59.249 122.376 88.096 117.84 119.466C67.3652 141.506 34.0771 191.785 34.0771 247.443C34.0771 324.422 96.7042 387.048 173.682 387.048C197.407 387.048 220.528 381.016 241 369.741V512H271V369.741C291.472 381.016 314.593 387.048 338.318 387.048C415.297 387.048 477.923 324.421 477.923 247.443C477.926 191.785 444.638 141.505 394.163 119.466ZM338.32 357.048C313.846 357.048 290.19 348.877 271.002 333.926V242.176L338.281 206.801L324.319 180.248L271.002 208.282V149.23H241.002V274.775L187.685 246.741L173.723 273.294L241.002 308.669V333.926C221.814 348.877 198.158 357.048 173.684 357.048C113.247 357.048 64.0792 307.879 64.0792 247.443C64.0792 201.232 93.3052 159.743 136.804 144.202L145.98 140.924L146.714 131.208C148.792 103.739 161.083 78.229 181.324 59.378C201.665 40.433 228.187 30 256.002 30C283.817 30 310.339 40.433 330.681 59.377C350.922 78.228 363.213 103.737 365.291 131.207L366.025 140.923L375.201 144.201C418.7 159.742 447.926 201.231 447.926 247.442C447.926 307.879 398.757 357.048 338.32 357.048Z" fill="white"/>
</svg>
