<svg width="30" height="30" viewBox="0 0 30 30" fill="none" xmlns="http://www.w3.org/2000/svg">
<g clip-path="url(#clip0)">
<path d="M25.8193 17.3063C26.8144 18.2779 27.8647 19.1919 28.7573 20.2615C29.1516 20.7368 29.5248 21.2273 29.8104 21.7789C30.215 22.563 29.8485 23.4258 29.1455 23.4726L24.7749 23.4706C23.6477 23.5642 22.7485 23.1104 21.9924 22.3397C21.3873 21.7233 20.8269 21.0674 20.2451 20.4302C20.0065 20.1698 19.7569 19.9248 19.4586 19.7311C18.862 19.3438 18.3441 19.4624 18.0032 20.0846C17.6559 20.7176 17.5771 21.4183 17.543 22.1237C17.4962 23.1528 17.1851 23.4234 16.1514 23.4705C13.9421 23.5747 11.8454 23.2405 9.89753 22.126C8.18026 21.1435 6.84866 19.7564 5.68956 18.1861C3.43294 15.1285 1.70472 11.7686 0.151512 8.31466C-0.198116 7.53648 0.0575866 7.11876 0.916219 7.10394C2.34198 7.07622 3.76757 7.07822 5.19503 7.10195C5.77452 7.11044 6.15813 7.44279 6.3819 7.99023C7.15329 9.88697 8.09718 11.6915 9.28194 13.3642C9.59747 13.8095 9.91921 14.2549 10.3773 14.5683C10.8841 14.9154 11.27 14.8003 11.5084 14.2357C11.6597 13.8777 11.726 13.4921 11.7601 13.1087C11.8731 11.7896 11.888 10.4727 11.6899 9.15824C11.5682 8.33786 11.1061 7.80677 10.2875 7.65156C9.86981 7.5724 9.93198 7.41695 10.1342 7.17853C10.4855 6.76732 10.8159 6.51132 11.4746 6.51132H16.4139C17.1915 6.66478 17.3642 7.01412 17.4707 7.79652L17.4749 13.2831C17.4664 13.5859 17.6262 14.4848 18.1717 14.6853C18.6084 14.828 18.8962 14.4787 19.1582 14.2018C20.3408 12.9467 21.1849 11.4633 21.9389 9.92734C22.2735 9.25193 22.5613 8.55056 22.8401 7.84972C23.0467 7.3297 23.3709 7.07382 23.9567 7.08513L28.7105 7.08935C28.8515 7.08935 28.9941 7.0914 29.1306 7.11478C29.9317 7.2513 30.1512 7.59589 29.9038 8.37812C29.514 9.60536 28.7555 10.6281 28.0138 11.6556C27.2211 12.7525 26.3732 13.8119 25.587 14.9154C24.8647 15.9232 24.922 16.4311 25.8193 17.3063Z" fill="white"/>
</g>
<defs>
<clipPath id="clip0">
<rect width="30" height="30" fill="white"/>
</clipPath>
</defs>
</svg>
