<svg width="25" height="25" viewBox="0 0 25 25" fill="none" xmlns="http://www.w3.org/2000/svg">
<path d="M21.3389 3.66113C18.9779 1.30024 15.8389 0 12.5 0C9.16113 0 6.02212 1.30024 3.66113 3.66113C1.30024 6.02212 0 9.16113 0 12.5C0 15.8389 1.30024 18.9779 3.66113 21.3389C6.02212 23.6998 9.16113 25 12.5 25C14.7858 25 17.0223 24.3771 18.9678 23.1986C19.4292 22.9191 19.5766 22.3187 19.2972 21.8574C19.0178 21.396 18.4172 21.2486 17.956 21.528C16.3156 22.5217 14.429 23.0469 12.5 23.0469C6.68442 23.0469 1.95312 18.3156 1.95312 12.5C1.95312 6.68442 6.68442 1.95312 12.5 1.95312C18.3156 1.95312 23.0469 6.68442 23.0469 12.5C23.0469 14.5795 22.4285 16.6037 21.2584 18.3538C20.9587 18.8021 21.0792 19.4086 21.5275 19.7084C21.9759 20.0081 22.5824 19.8876 22.8821 19.4393C24.2676 17.3669 25 14.9673 25 12.5C25 9.16113 23.6998 6.02212 21.3389 3.66113Z" fill="black"/>
<path d="M12.4998 3.71094C11.9605 3.71094 11.5232 4.14814 11.5232 4.6875V12.0955L7.9423 15.6765C7.5609 16.0578 7.5609 16.6761 7.9423 17.0575C8.13297 17.2482 8.38287 17.3436 8.63282 17.3436C8.88277 17.3436 9.13268 17.2482 9.32335 17.0575L13.1903 13.1905C13.3735 13.0074 13.4764 12.759 13.4764 12.5V4.6875C13.4764 4.14814 13.0392 3.71094 12.4998 3.71094Z" fill="black"/>
</svg>
