<svg width="25" height="25" viewBox="0 0 25 25" fill="none" xmlns="http://www.w3.org/2000/svg">
<g clip-path="url(#clip0)">
<path d="M22.7981 5.42106C22.6451 5.19908 22.341 5.14313 22.119 5.29608C21.897 5.44908 21.8411 5.75308 21.9941 5.97511C22.5119 6.72663 22.9286 7.52155 23.2471 8.34255C22.1803 8.37174 21.1569 8.90938 20.5429 9.81225C20.3913 10.0352 20.4491 10.3389 20.672 10.4905C20.7561 10.5477 20.8516 10.575 20.9461 10.575C21.1023 10.575 21.2558 10.5003 21.3502 10.3614C21.8453 9.63347 22.7152 9.23955 23.5793 9.32942C24.7057 13.2614 23.6739 17.6201 20.6445 20.6495C17.9486 23.3454 14.2382 24.4227 10.7308 23.8827C11.2342 22.9459 11.2784 21.7952 10.8051 20.8153C10.6879 20.5725 10.396 20.4707 10.1532 20.588C9.91044 20.7052 9.80865 20.9971 9.92591 21.2399C10.3074 22.0297 10.2156 22.9759 9.71042 23.6786C7.74516 23.192 5.88393 22.1825 4.35091 20.6495C0.154366 16.4529 -0.121267 9.79804 3.52299 5.27792C4.08216 6.18469 5.05801 6.8003 6.14511 6.88051C6.15732 6.88144 6.16947 6.88188 6.18158 6.88188C6.43485 6.88188 6.64897 6.68626 6.66792 6.42957C6.68779 6.16067 6.48587 5.92663 6.21697 5.90681C5.34135 5.84218 4.56723 5.28857 4.21168 4.49862C4.25781 4.45088 4.30375 4.40299 4.35091 4.35583C8.28276 0.423932 14.4541 -0.143688 19.025 3.00612C19.247 3.15907 19.551 3.10318 19.704 2.88115C19.857 2.65912 19.8011 2.35512 19.5791 2.20212C14.6202 -1.21493 7.92545 -0.599562 3.66051 3.66543C1.30001 6.02593 0 9.16437 0 12.5026C0 15.8409 1.30001 18.9793 3.66051 21.3398C6.02101 23.7003 9.15945 25.0003 12.4977 25.0003C15.836 25.0003 18.9744 23.7003 21.3349 21.3398C25.6 17.0747 26.2154 10.3799 22.7981 5.42106V5.42106Z" fill="white"/>
<path d="M12.9858 10.3542C12.9858 10.0846 12.7672 9.866 12.4976 9.866C11.0439 9.866 9.86133 11.0486 9.86133 12.5022C9.86133 12.7718 10.0799 12.9904 10.3495 12.9904C10.6191 12.9904 10.8377 12.7718 10.8377 12.5022C10.8377 11.587 11.5823 10.8424 12.4976 10.8424C12.7672 10.8424 12.9858 10.6238 12.9858 10.3542V10.3542Z" fill="white"/>
<path d="M14.1573 12.5022C14.1573 13.4175 13.4127 14.1621 12.4975 14.1621C12.2278 14.1621 12.0093 14.3806 12.0093 14.6503C12.0093 14.9199 12.2278 15.1384 12.4975 15.1384C13.9511 15.1384 15.1337 13.9559 15.1337 12.5022C15.1337 12.2326 14.9151 12.014 14.6455 12.014C14.3759 12.014 14.1573 12.2326 14.1573 12.5022Z" fill="white"/>
<path d="M12.9856 17.97C12.9856 17.7004 12.7671 17.4818 12.4974 17.4818C9.75171 17.4818 7.51789 15.248 7.51789 12.5022C7.51789 12.2326 7.29932 12.014 7.0297 12.014C6.76007 12.014 6.5415 12.2326 6.5415 12.5022C6.5415 15.7864 9.21333 18.4582 12.4974 18.4582C12.7671 18.4582 12.9856 18.2396 12.9856 17.97Z" fill="white"/>
<path d="M17.0476 15.5742C17.1225 15.6157 17.2036 15.6353 17.2836 15.6353C17.4554 15.6353 17.622 15.5445 17.7111 15.3835C18.1966 14.5067 18.4533 13.5103 18.4533 12.5022C18.4533 10.3827 17.3124 8.40599 15.4759 7.34354C15.2425 7.20851 14.944 7.28828 14.8089 7.52163C14.6738 7.75504 14.7536 8.05366 14.987 8.1887C16.5229 9.07725 17.4769 10.7301 17.4769 12.5023C17.4769 13.3453 17.2626 14.1781 16.857 14.9106C16.7263 15.1465 16.8117 15.4436 17.0476 15.5742Z" fill="white"/>
<path d="M12.498 6.54633C10.9071 6.54633 9.41147 7.16584 8.28653 8.29078C8.0959 8.48142 8.0959 8.79054 8.28653 8.98123C8.38188 9.07657 8.5068 9.12422 8.63173 9.12422C8.75666 9.12422 8.88164 9.07657 8.97693 8.98123C9.91743 8.04068 11.1679 7.52276 12.498 7.52276C12.7676 7.52276 12.9862 7.30419 12.9862 7.03457C12.9862 6.76494 12.7676 6.54633 12.498 6.54633Z" fill="white"/>
<path d="M4.70954 8.39942C4.46442 8.28694 4.17468 8.39459 4.0623 8.63966C3.50483 9.85526 3.22217 11.1548 3.22217 12.5022C3.22217 15.881 5.06163 18.9949 8.02271 20.6288C8.0975 20.6701 8.17834 20.6897 8.25812 20.6897C8.43015 20.6897 8.59697 20.5985 8.68597 20.4372C8.81622 20.2012 8.73044 19.9042 8.4944 19.774C5.84464 18.3119 4.19855 15.5255 4.19855 12.5022C4.19855 11.2963 4.45129 10.1337 4.94983 9.04667C5.06221 8.80159 4.95462 8.5118 4.70954 8.39942V8.39942Z" fill="white"/>
<path d="M15.6254 16.4996C15.4965 16.4996 15.371 16.5518 15.2802 16.6426C15.189 16.7334 15.1372 16.8589 15.1372 16.9878C15.1372 17.1162 15.189 17.2421 15.2802 17.3329C15.371 17.4237 15.497 17.476 15.6254 17.476C15.7538 17.476 15.8793 17.4237 15.9705 17.3329C16.0613 17.2421 16.1136 17.1162 16.1136 16.9878C16.1136 16.8594 16.0613 16.7334 15.9705 16.6426C15.8797 16.5518 15.7538 16.4996 15.6254 16.4996Z" fill="white"/>
<path d="M20.9897 4.49833C21.118 4.49833 21.244 4.44609 21.3348 4.35529C21.4256 4.26448 21.4778 4.13902 21.4778 4.01013C21.4778 3.88174 21.4256 3.75579 21.3348 3.66498C21.244 3.57418 21.118 3.52194 20.9897 3.52194C20.8613 3.52194 20.7353 3.57418 20.6445 3.66498C20.5537 3.75579 20.5015 3.88174 20.5015 4.01013C20.5015 4.13902 20.5537 4.26448 20.6445 4.35529C20.7353 4.44609 20.8613 4.49833 20.9897 4.49833Z" fill="white"/>
<path d="M13.1323 21.7553C13.1439 21.7553 13.1557 21.7549 13.1675 21.754C15.502 21.5874 17.6708 20.5511 19.2745 18.836C20.8861 17.1125 21.7736 14.8631 21.7736 12.5022C21.7736 12.2326 21.555 12.014 21.2854 12.014C21.0158 12.014 20.7972 12.2326 20.7972 12.5022C20.7972 16.8358 17.4153 20.4719 13.098 20.7801C12.8291 20.7993 12.6266 21.0329 12.6458 21.3019C12.6641 21.559 12.8784 21.7553 13.1323 21.7553Z" fill="white"/>
<path d="M17.0972 4.44556C15.7032 3.6481 14.1127 3.22659 12.4977 3.22659C10.8002 3.22659 9.13945 3.68945 7.69513 4.56512C7.46456 4.70493 7.39099 5.00512 7.53076 5.2357C7.67058 5.46627 7.97077 5.53974 8.20134 5.40007C9.493 4.61691 10.9787 4.20298 12.4976 4.20298C15.4066 4.20298 18.0529 5.68513 19.5765 8.16773C19.6687 8.31789 19.8289 8.40064 19.9931 8.40064C20.0801 8.40064 20.1683 8.37731 20.248 8.32844C20.4777 8.1874 20.5497 7.88682 20.4087 7.65703C19.5939 6.32925 18.4487 5.21876 17.0972 4.44556V4.44556Z" fill="white"/>
</g>
<defs>
<clipPath id="clip0">
<rect width="25" height="25" fill="white"/>
</clipPath>
</defs>
</svg>
